# xmcd
#
# Track frame offsets: 
#        150
#        17406
#        29678
#        51250
#        64200
#
# Disc length: 919 seconds
#
# Revision: 0
# Processed by: cddbd v1.5.2PL0 Copyright (c) Steve Scherf et al.
# Submitted via: ExactAudioCopy v0.99pb5
#
DISCID=3e039505
DTITLE=Various Artist - Quando O Coracao Toca
DYEAR=1999
DGENRE=Blues
TTITLE0=Doug Perkins and Steve Goomas - Joanne
TTITLE1=Jamie Harrison - Eagle Mountain
TTITLE2=Doug Perkins and Steve Goomas - 'Til The End Of Time
TTITLE3=Rolf A. Kruger - Red Light
TTITLE4=M. Amado - Cheek To Cheek
EXTD=
EXTT0=
EXTT1=
EXTT2=
EXTT3=
EXTT4=
PLAYORDER=
